<?xml version="1.0" encoding="utf-8"?>
<!-- Generator: Adobe Illustrator 19.2.1, SVG Export Plug-In . SVG Version: 6.00 Build 0)  -->
<svg version="1.1" id="Layer_1" xmlns="http://www.w3.org/2000/svg" xmlns:xlink="http://www.w3.org/1999/xlink" x="0px" y="0px"
	 viewBox="0 0 841.9 595.3" style="enable-background:new 0 0 841.9 595.3;" xml:space="preserve">
<style type="text/css">
	.st0{fill:#29FF5E;stroke:#000000;stroke-miterlimit:10;}
</style>
<g>
	<g>
		<path class="st0" d="M729,278c0,3.3,0,6.7,0,10c-3.6,10.6-10.6,18.4-19.4,25.2c-11.6,8.9-22.7,18.5-33.9,27.9
			c-34.6,28.6-69.2,57.3-103.7,85.9c-25.1,20.8-50.2,41.6-75.3,62.4c-6.9,5.7-13.8,11.5-21.4,16.3c-10.5,6.5-21.4,1.9-24.7-9.9
			c-1.2-4.2-1.4-8.9-1.4-13.3c-0.1-29.3-0.1-58.6-0.1-88c0-1.9,0-3.9,0-6c-2.2-0.1-3.7-0.2-5.1-0.2c-105.9,0-211.9,0.1-317.8,0.2
			c-9.1,0-15.6-4-19.4-12.2c-1.4-3-2.4-6.2-3.6-9.3c0-54.3,0-108.7,0-163c4.6-16,16.3-19.6,31.5-19.6c100,0.3,200,0.2,299.9,0.2
			c2.4,0,4.9,0,7.8,0c0-2.6,0-4.4,0-6.2c0-26.3-0.1-52.7,0.1-79c0-6,0.4-12.1,1.8-17.8c2.9-12,14.8-17.4,25.8-12
			c3.9,1.9,7.6,4.2,11,6.8c10.1,7.7,19.9,15.7,29.9,23.3c31.1,23.7,62.3,47.2,93.3,71.1c33.7,26,67.2,52.3,100.7,78.7
			C714.8,257.3,725.1,265,729,278z"/>
	</g>
</g>
</svg>
