<?xml version="1.0" encoding="utf-8"?>
<!-- Generator: Adobe Illustrator 19.2.1, SVG Export Plug-In . SVG Version: 6.00 Build 0)  -->
<svg version="1.1" xmlns="http://www.w3.org/2000/svg" xmlns:xlink="http://www.w3.org/1999/xlink" x="0px" y="0px"
	 viewBox="0 0 841.9 595.3" style="enable-background:new 0 0 841.9 595.3;" xml:space="preserve">
<style type="text/css">
	.st0{fill:#211DB2;stroke:#000000;stroke-miterlimit:10;}
	.st1{fill:#FFFFFF;stroke:#000000;stroke-width:5;stroke-miterlimit:10;}
</style>
<g id="Layer_2">
	<rect class="st0" width="841.9" height="595.3"/>
</g>
<g id="Layer_1">
	<g>
		<g>
			<path class="st1" d="M151.7,191.6c-0.2,0.9-0.1,1.7-0.4,2.2c-1.6,2.8-3.8,5.5-4.9,8.5c-2.9,8-3.5,16.5-4.1,25
				c-0.7,9.7,0.9,19,5.3,27.5c2.6,5.1,6,10,9.8,14.3c8.4,9.4,18.9,11.4,30.6,7.3c8.2-2.9,15.5-7.6,22.7-12.4
				c6.4-4.3,12.7-8.9,19.3-12.8c13-7.7,27.2-12.7,41.9-16c15.7-3.5,31.5-6.7,47.3-9.5c13.8-2.5,27.8-4,41.5-6.7
				c12.4-2.5,24.6-5.9,36.9-9.2c5.9-1.6,11.1-4.7,16-8.5c14.2-11.2,29.3-21,45.7-28.8c8.2-3.9,13.9-10.4,17.9-18.7
				c3.5-7.2,7.9-14.1,12.4-20.8c4.5-6.8,7.9-14,10.3-21.7c1.5-4.8,3.9-9.5,6.3-13.9c1.1-2,3.5-3.2,5.3-4.8c0.4-0.3,1-0.4,1.3-0.8
				c3.8-4.7,9.2-5.5,14.7-5.3c7.2,0.2,14.1-1.2,21-2.6c7.8-1.6,15-0.8,21.1,5c6.5,6.1,14.3,6.4,22.4,4.5c6.2-1.5,12.4-3,18.6-4.4
				c0.8-0.2,1.6-0.2,2.5-0.3c8.2-0.9,11.3,1.9,12.1,10.4c1,11.8-2.3,22.3-11.4,30.3c-2,1.8-4.8,2.7-6.9,4.3c-1.8,1.3-4,2.8-4.8,4.8
				c-2.5,5.9-7,9.4-12.3,12.2c-2.4,1.2-4.7,2.4-7.1,3.5c-6.1,2.9-9.9,7.7-11.7,14.1c-2.2,7.7-4.4,15.5-6.4,23.3
				c-3.1,12-8,23.2-14.3,33.8c-6.2,10.3-9.7,21.3-11.5,33.1c-1.4,8.9-3.8,17.6-6.1,26.4c-2.7,10.2-8.7,18.1-17,24.6
				c-3.3,2.5-6.3,5.4-9.7,8.4c2.7,2.1,5.1,3.9,7.5,5.9c3.7,3.1,7.4,6.2,11,9.4c7.8,7.1,10.7,15.8,8,26.2c-2.8,11-7.2,21.4-12.6,31.3
				c-1.4,2.5-3.3,4.8-5.2,7c-3.6,4.2-6.8,8.6-8.9,13.7c-1,2.5-2.4,5-4.1,7.1c-1.3,1.7-3.2,3.2-5.1,4.2c-5.2,2.5-9.9,0.8-11.4-4.8
				c-1.1-4.3-1.4-8.8-1.4-13.3c0-9.1,4.2-16.4,10.7-22.6c5.4-5.1,7.6-11.8,8.5-18.9c0.4-2.7,0.7-5.4,1.2-8.3
				c-7.7-2.5-15.2-5-22.8-7.3c-4.1-1.2-4.4-0.9-5.5,3.2c-2.3,8.7-4,17.5-6.7,26c-3.2,10.3-7.2,20.3-11,30.4
				c-3.8,10.2-6.5,20.6-5.7,31.6c0.2,2.5,0.8,5.1,1.7,7.5c1.5,4,4.8,5.9,8.8,6.4c6.8,0.8,11.3,4.8,14.9,10.2c2.3,3.4,3,7.1,1.8,11.3
				c-8.3,1.9-16.3,4.9-25,4.8c-7.7-0.1-13.8-3.1-18.3-9.4c-2.6-3.7-4.7-7.7-7.6-11.1c-2.3-2.7-5.3-5-8.2-7.1
				c-1.2-0.9-1.6-1.5-1.7-2.9c-0.2-9.8,2.2-19.2,5.3-28.3c4.9-14.3,5.3-28.9,4-43.8c-0.7-8.5-0.7-17.1-1-25.8
				c-9.9,3.9-19.5,0.5-28.9-2.1c-11.1-3.1-22.5-4.1-33.9-5.2c-7.8-0.8-15.6-2.2-23.5-3.2c-16.2-1.9-32.1-1-47.2,5.8
				c-6.9,3.1-12.6,7.7-15.8,14.9c-0.2,0.6-0.8,1-1.2,1.4c-0.4,0.5-1.1,0.9-1.2,1.4c-0.7,7.5-4.1,14-7.2,20.5
				c-5.2,10.9-10.1,21.9-17.7,31.4c-3.8,4.8-8.1,9.1-11.6,14c-1.5,2.1-2.2,5.2-2.4,7.9c-0.6,7.8-0.3,15.6,2.2,23.2
				c2.2,6.7,4.3,8.3,11.3,8.8c1.6,0.1,3.3,0.3,4.9,0.8c7.6,2.1,9.9,10.3,4.5,16.1c-3.8,4.1-8.7,5.3-14,5.2
				c-8.9-0.2-17.7-1.4-26.1-4.5c-7.7-2.8-10-6.5-8.7-15.5c1-6.6,2.8-13,3.9-19.5c0.5-2.8,0.1-5.7,0.1-8.5c-0.3-0.1-0.6-0.2-0.9-0.2
				c-0.6,0.7-1.3,1.4-1.8,2.2c-5.3,7.9-7.8,16.8-9.5,26c-1,5.5-1.5,11.2-2,16.8c-0.4,4.1,1.6,6.6,5.4,8.3c3.8,1.7,7.6,3.8,11,6.2
				c4.3,3.1,5.9,7.9,6.1,13.1c0,0.7,0,1.3,0,2c-0.2,6.4,1.2,5.2-5.5,6.9c-5.9,1.5-12.1,3.1-18.2,1.7c-6.4-1.5-12.5-4.3-17.6-8.5
				c-3.6-3-4.5-7.8-4.6-12.3c-0.3-9.6,0.1-19.3-0.1-28.9c-0.2-7.7-0.7-15.5-1.2-23.2c-0.7-10.8,1.7-20.1,10.1-27.7
				c7.4-6.6,12.5-14.9,13.9-25c0.9-6-0.2-12-1.5-17.8c-3.2-13.9-6.9-27.7-10-41.6c-2.9-13.4-3.7-27-0.4-40.5c0.5-2.2-0.7-2.6-2.2-3
				c-8.3-2-16.6-3.9-24.9-6.1c-8.6-2.2-16.6-5.6-22.6-12.4c-7.4-8.3-11.6-17.8-11.4-29.2c0.3-14,2-27.7,6.8-40.9
				c1.5-4.1,3.7-8,6.1-11.7c1.9-3,4.9-4.9,8.8-5C149.3,192.4,150.2,192,151.7,191.6z"/>
		</g>
	</g>
</g>
</svg>
