<?xml version="1.0" encoding="utf-8"?>
<!-- Generator: Adobe Illustrator 19.2.1, SVG Export Plug-In . SVG Version: 6.00 Build 0)  -->
<svg version="1.1" id="Layer_1" xmlns="http://www.w3.org/2000/svg" xmlns:xlink="http://www.w3.org/1999/xlink" x="0px" y="0px"
	 viewBox="0 0 841.9 595.3" style="enable-background:new 0 0 841.9 595.3;" xml:space="preserve">
<style type="text/css">
	.st0{fill:#967061;stroke:#2D2D2D;stroke-miterlimit:10;}
	.st1{fill:#B36747;stroke:#2D2D2D;stroke-miterlimit:10;}
</style>
<g>
	<g>
		<path class="st0" d="M3.7,102.1c10.8,0,21.2,0,31.9,0c0,151.9,0,303.6,0,455.8c-10.6,0-21.1,0-31.9,0C3.7,406,3.7,254.3,3.7,102.1
			z"/>
		<path class="st0" d="M809.9,102.1c10.6,0,20.8,0,31.4,0c0,152,0,303.8,0,456c-10.4,0-20.7,0-31.4,0
			C809.9,406.2,809.9,254.4,809.9,102.1z"/>
		<path class="st0" d="M75.1,541.5c-7.9,0-15.5,0-23.4,0c0-145.4,0-290.5,0-435.9c7.8,0,15.4,0,23.4,0
			C75.1,250.8,75.1,395.9,75.1,541.5z"/>
		<path class="st0" d="M793.4,541.5c-8,0-15.6,0-23.5,0c0-145.3,0-290.3,0-435.7c7.8,0,15.5,0,23.5,0
			C793.4,251,793.4,396,793.4,541.5z"/>
		<path class="st0" d="M115.3,541.5c-7.9,0-15.5,0-23.4,0c0-140.7,0-281.2,0-422c7.8,0,15.4,0,23.4,0
			C115.3,260,115.3,400.5,115.3,541.5z"/>
		<path class="st0" d="M753.1,541.6c-7.8,0-15.3,0-23.2,0c0-140.7,0-281.4,0-422.1c7.8,0,15.2,0,23.2,0
			C753.1,260.1,753.1,400.6,753.1,541.6z"/>
		<path class="st0" d="M713.5,541.5c-7.9,0-15.6,0-23.4,0c0-136.6,0-273,0-409.7c7.9,0,15.5,0,23.4,0
			C713.5,268.3,713.5,404.7,713.5,541.5z"/>
		<path class="st0" d="M154.9,541.5c-8,0-15.6,0-23.4,0c0-136.6,0-273,0-409.6c7.9,0,15.5,0,23.4,0
			C154.9,268.3,154.9,404.7,154.9,541.5z"/>
		<path class="st0" d="M194.8,541.6c-7.8,0-15.3,0-23.1,0c0-133,0-265.9,0-399.1c7.6,0,15.2,0,23.1,0
			C194.8,275.4,194.8,408.2,194.8,541.6z"/>
		<path class="st0" d="M610.3,541.5c0-130,0-259.9,0-390c7.9,0,15.6,0,23.6,0c0,130.1,0,259.9,0,390
			C626.1,541.5,618.5,541.5,610.3,541.5z"/>
		<path class="st0" d="M211.5,151.4c7.9,0,15.5,0,23.4,0c0,130.1,0,259.9,0,390.1c-7.8,0-15.4,0-23.4,0
			C211.5,411.5,211.5,281.5,211.5,151.4z"/>
		<path class="st0" d="M650.6,142.3c7.6,0,15,0,22.7,0c0,133,0,265.9,0,399.2c-7.5,0-14.9,0-22.7,0
			C650.6,408.5,650.6,275.7,650.6,142.3z"/>
		<path class="st0" d="M594,541.6c-7.8,0-15.3,0-23.2,0c0-127.5,0-254.9,0-382.6c7.6,0,15.2,0,23.2,0C594,286.3,594,413.7,594,541.6
			z"/>
		<path class="st0" d="M274.6,541.6c-7.8,0-15.3,0-23.1,0c0-127.5,0-254.8,0-382.5c7.5,0,15.1,0,23.1,0
			C274.6,286.3,274.6,413.7,274.6,541.6z"/>
		<path class="st0" d="M291.4,164.6c8,0,15.6,0,23.4,0c0,125.7,0,251.2,0,376.9c-7.9,0-15.5,0-23.4,0
			C291.4,415.9,291.4,290.5,291.4,164.6z"/>
		<path class="st0" d="M553.9,541.6c-7.9,0-15.3,0-23.3,0c0-125.6,0-251.2,0-377c7.7,0,15.3,0,23.3,0
			C553.9,290.1,553.9,415.6,553.9,541.6z"/>
		<path class="st0" d="M331.1,168.4c7.9,0,15.4,0,23.3,0c0,124.3,0,248.4,0,373c-7.6,0-15.3,0-23.3,0
			C331.1,417.2,331.1,293,331.1,168.4z"/>
		<path class="st0" d="M490.6,168.5c8,0,15.6,0,23.5,0c0,124.3,0,248.4,0,372.9c-7.7,0-15.5,0-23.5,0
			C490.6,417.2,490.6,293.1,490.6,168.5z"/>
		<path class="st0" d="M394.7,541.5c-8,0-15.6,0-23.5,0c0-123.5,0-246.7,0-370.2c7.8,0,15.5,0,23.5,0
			C394.7,294.6,394.7,417.8,394.7,541.5z"/>
		<path class="st0" d="M474,541.6c-7.7,0-15.1,0-22.9,0c0-123.4,0-246.6,0-370.1c7.6,0,15,0,22.9,0C474,294.7,474,418.1,474,541.6z"
			/>
		<path class="st0" d="M434.3,541.5c-8,0-15.6,0-23.5,0c0-122.9,0-245.5,0-368.5c7.8,0,15.5,0,23.5,0
			C434.3,295.8,434.3,418.4,434.3,541.5z"/>
		<path class="st0" d="M843.1,70.1c-11.6,0-22.7,0-34.4,0c1.1-12.9,5.7-23.8,14.9-32.6c0.8-0.8,4.3-0.1,5.5,1.1
			C838.2,46.9,842.2,57.5,843.1,70.1z"/>
		<path class="st0" d="M36.8,70.1c-11.7,0-22.7,0-34.2,0C3.2,59.6,6.8,50.4,13,42.2c1.2-1.5,2.2-3.5,3.7-4.3
			c1.5-0.8,4.4-1.2,5.4-0.4C31.4,46.2,36.3,56.9,36.8,70.1z"/>
		<path class="st0" d="M6,72c9.3,0,17.9,0,26.3,0c-1,3-2.7,5.9-2.7,8.8c0,2.9,1.7,5.8,2.8,9c-8.3,0-16.8,0-25.9,0
			C10.2,84,11.2,78.1,6,72z"/>
		<path class="st0" d="M838.5,90c-8.4,0-16.9,0-26.1,0c4-5.9,5.3-11.7-0.4-17.8c9.2,0,18,0,26.5,0c-0.9,2.7-2.6,5.6-2.6,8.5
			C835.9,83.6,837.5,86.6,838.5,90z"/>
		<path class="st1" d="M77.1,480.2c4.7,0,8.6,0,12.9,0c0,9.2,0,18.2,0,27.6c-4.2,0-8.4,0-12.9,0C77.1,498.7,77.1,489.5,77.1,480.2z"
			/>
		<path class="st1" d="M90,237.1c-4.5,0-8.4,0-12.8,0c0-9.2,0-18.3,0-27.6c4.3,0,8.4,0,12.8,0C90,218.7,90,227.7,90,237.1z"/>
		<path class="st1" d="M117.1,209.5c4.4,0,8.3,0,12.6,0c0,9.2,0,18.2,0,27.5c-4.2,0-8.3,0-12.6,0
			C117.1,227.8,117.1,218.9,117.1,209.5z"/>
		<path class="st1" d="M170,209.6c0,9.3,0,18.2,0,27.4c-4.3,0-8.4,0-12.9,0c0-9.1,0-18.1,0-27.4C161.4,209.6,165.4,209.6,170,209.6z
			"/>
		<path class="st1" d="M49.9,236.9c-4.2,0-8.3,0-12.6,0c0-9.1,0-18,0-27.2c4.1,0,8.2,0,12.6,0C49.9,218.7,49.9,227.6,49.9,236.9z"/>
		<path class="st1" d="M196.6,236.9c0-9.3,0-18.2,0-27.3c4.3,0,8.4,0,12.8,0c0,9,0,17.9,0,27.3C205.3,236.9,201.2,236.9,196.6,236.9
			z"/>
		<path class="st1" d="M237,209.5c4.3,0,8.4,0,12.8,0c0,9.2,0,18.2,0,27.4c-4.3,0-8.3,0-12.8,0C237,228,237,219,237,209.5z"/>
		<path class="st1" d="M289.3,237.1c-4.5,0-8.4,0-12.8,0c0-9.1,0-18.1,0-27.4c4.1,0,8.3,0,12.8,0
			C289.3,218.7,289.3,227.7,289.3,237.1z"/>
		<path class="st1" d="M329.2,237.1c-4.4,0-8.2,0-12.4,0c0-9.1,0-18.1,0-27.4c3.9,0,8,0,12.4,0C329.2,218.7,329.2,227.7,329.2,237.1
			z"/>
		<path class="st1" d="M568.6,237.1c-4.4,0-8.4,0-12.7,0c0-9.1,0-18,0-27.4c4.1,0,8.3,0,12.7,0C568.6,218.7,568.6,227.6,568.6,237.1
			z"/>
		<path class="st1" d="M409.1,209.6c0,9.2,0,18.1,0,27.3c-4.2,0-8.3,0-12.6,0c0-9.1,0-18.1,0-27.3
			C400.7,209.6,404.6,209.6,409.1,209.6z"/>
		<path class="st1" d="M768.1,237c-4.4,0-8.5,0-12.8,0c0-9.2,0-18.2,0-27.4c4.3,0,8.4,0,12.8,0C768.1,218.6,768.1,227.5,768.1,237z"
			/>
		<path class="st1" d="M475.9,236.9c0-9.1,0-18,0-27.3c4.2,0,8.4,0,12.9,0c0,9,0,18,0,27.3C484.6,236.9,480.6,236.9,475.9,236.9z"/>
		<path class="st1" d="M768.1,507.9c-4.4,0-8.5,0-12.8,0c0-9.2,0-18.2,0-27.6c4.1,0,8.3,0,12.8,0
			C768.1,489.4,768.1,498.4,768.1,507.9z"/>
		<path class="st1" d="M715.4,507.9c0-9.3,0-18.3,0-27.6c4.2,0,8.1,0,12.4,0c0,9.1,0,18.2,0,27.6C723.9,507.9,720,507.9,715.4,507.9
			z"/>
		<path class="st1" d="M688.4,508c-4.5,0-8.4,0-12.8,0c0-9.2,0-18.3,0-27.7c4.2,0,8.4,0,12.8,0C688.4,489.5,688.4,498.5,688.4,508z"
			/>
		<path class="st1" d="M648.5,480.4c0,9.3,0,18.3,0,27.5c-4.4,0-8.4,0-12.9,0c0-9.1,0-18.1,0-27.5
			C639.8,480.4,643.9,480.4,648.5,480.4z"/>
		<path class="st1" d="M596,480.2c4.2,0,8.2,0,12.4,0c0,9.2,0,18.2,0,27.6c-4.1,0-8.1,0-12.4,0C596,498.8,596,489.7,596,480.2z"/>
		<path class="st1" d="M555.7,507.9c0-9.4,0-18.4,0-27.7c4.3,0,8.4,0,12.8,0c0,9.2,0,18.3,0,27.7
			C564.3,507.9,560.3,507.9,555.7,507.9z"/>
		<path class="st1" d="M688.4,209.6c0,9.3,0,18.2,0,27.3c-4.3,0-8.4,0-12.8,0c0-9,0-18,0-27.3C679.7,209.6,683.8,209.6,688.4,209.6z
			"/>
		<path class="st1" d="M476,480.2c4.3,0,8.4,0,12.8,0c0,9.1,0,18.2,0,27.6c-4.1,0-8.3,0-12.8,0C476,498.8,476,489.8,476,480.2z"/>
		<path class="st1" d="M449.3,480.3c0,9.3,0,18.2,0,27.5c-4.3,0-8.5,0-13,0c0-9.1,0-18.2,0-27.5
			C440.6,480.3,444.6,480.3,449.3,480.3z"/>
		<path class="st1" d="M409,508c-4.3,0-8.2,0-12.5,0c0-9.2,0-18.2,0-27.7c4.1,0,8.1,0,12.5,0C409,489.3,409,498.4,409,508z"/>
		<path class="st1" d="M369.2,507.9c-4.5,0-8.5,0-12.9,0c0-9.3,0-18.4,0-27.7c4.4,0,8.4,0,12.9,0
			C369.2,489.4,369.2,498.4,369.2,507.9z"/>
		<path class="st1" d="M329.2,480.2c0,9.4,0,18.4,0,27.7c-4.2,0-8.2,0-12.5,0c0-9.2,0-18.3,0-27.7
			C320.8,480.2,324.7,480.2,329.2,480.2z"/>
		<path class="st1" d="M289.5,480.4c0,9.2,0,18.1,0,27.4c-4.2,0-8.4,0-13,0c0-8.9,0-17.9,0-27.4
			C280.6,480.4,284.8,480.4,289.5,480.4z"/>
		<path class="st1" d="M249.8,507.9c-4.5,0-8.5,0-12.9,0c0-9.2,0-18.2,0-27.6c4.2,0,8.4,0,12.9,0
			C249.8,489.4,249.8,498.4,249.8,507.9z"/>
		<path class="st1" d="M196.7,480.2c4.3,0,8.4,0,12.8,0c0,9.1,0,18.1,0,27.6c-4.1,0-8.3,0-12.8,0
			C196.7,498.8,196.7,489.8,196.7,480.2z"/>
		<path class="st1" d="M157.1,480.2c4.2,0,8.3,0,12.8,0c0,9.2,0,18.3,0,27.7c-4.3,0-8.3,0-12.8,0
			C157.1,498.7,157.1,489.6,157.1,480.2z"/>
		<path class="st1" d="M117.2,480.2c4.3,0,8.3,0,12.6,0c0,9.3,0,18.3,0,27.6c-4.2,0-8.2,0-12.6,0
			C117.2,498.7,117.2,489.6,117.2,480.2z"/>
		<path class="st1" d="M50.1,480.3c0,9.3,0,18.2,0,27.4c-4.2,0-8.3,0-12.7,0c0-9,0-18,0-27.4C41.4,480.3,45.5,480.3,50.1,480.3z"/>
		<path class="st1" d="M635.5,236.9c0-9.2,0-18.1,0-27.3c4.3,0,8.4,0,12.9,0c0,9,0,18,0,27.3C644.2,236.9,640.1,236.9,635.5,236.9z"
			/>
		<path class="st1" d="M715.6,209.5c4.3,0,8.2,0,12.4,0c0,9.2,0,18.2,0,27.4c-4.1,0-8,0-12.4,0C715.6,228,715.6,219,715.6,209.5z"/>
		<path class="st1" d="M449.3,209.6c0,9.2,0,18.1,0,27.3c-4.3,0-8.4,0-12.8,0c0-9,0-18,0-27.3C440.5,209.6,444.6,209.6,449.3,209.6z
			"/>
		<path class="st1" d="M356.3,236.9c0-9,0-17.9,0-27.2c4.3,0,8.4,0,12.9,0c0,9,0,17.9,0,27.2C365,236.9,360.8,236.9,356.3,236.9z"/>
		<path class="st1" d="M596.1,209.5c4,0,8,0,12.2,0c0,9.1,0,18.1,0,27.4c-4,0-7.9,0-12.2,0C596.1,227.9,596.1,218.9,596.1,209.5z"/>
		<path class="st1" d="M795.5,209.5c4.2,0,8,0,12.1,0c0,9.2,0,18.2,0,27.5c-4,0-7.9,0-12.1,0C795.5,227.9,795.5,218.9,795.5,209.5z"
			/>
		<path class="st1" d="M516.2,480.2c4.2,0,8.1,0,12.2,0c0,9.3,0,18.3,0,27.7c-4.1,0-8,0-12.2,0C516.2,498.8,516.2,489.8,516.2,480.2
			z"/>
		<path class="st1" d="M795.5,480.2c4.1,0,7.9,0,12.1,0c0,9.1,0,18.2,0,27.7c-3.9,0-7.8,0-12.1,0
			C795.5,498.8,795.5,489.8,795.5,480.2z"/>
		<path class="st1" d="M516.1,236.9c0-9.3,0-18.1,0-27.3c4.1,0,8,0,12.3,0c0,9,0,18,0,27.3C524.4,236.9,520.5,236.9,516.1,236.9z"/>
		<path class="st0" d="M808.9,100.1c0-2.9,0-5.5,0-8.5c11.2,0,22.3,0,33.8,0c0,2.6,0,5.4,0,8.5C831.6,100.1,820.5,100.1,808.9,100.1
			z"/>
		<path class="st0" d="M36.5,91.7c0,2.8,0,5.5,0,8.4c-11.2,0-22.3,0-33.6,0c0-2.8,0-5.5,0-8.4C14,91.7,25.1,91.7,36.5,91.7z"/>
		<path class="st0" d="M263.1,142.1c3.8,5,7.2,9.7,11.1,15c-7.7,0-14.4,0-22.3,0C255.8,151.9,259.3,147.2,263.1,142.1z"/>
		<path class="st0" d="M582.2,142.1c3.8,5.1,7.2,9.7,11.1,14.9c-7.6,0-14.4,0-22.2,0C574.9,151.9,578.3,147.3,582.2,142.1z"/>
		<path class="st0" d="M314.1,162.7c-7.8,0-14.5,0-22.2,0c3.8-5.1,7.1-9.6,11-14.7C306.7,152.9,310.1,157.4,314.1,162.7z"/>
		<path class="st0" d="M553.5,162.7c-7.7,0-14.4,0-22.3,0c3.9-5.2,7.4-9.8,11.1-14.8C546.1,152.9,549.5,157.4,553.5,162.7z"/>
		<path class="st0" d="M451.5,169.7c3.8-5.1,7.2-9.6,11.1-14.8c3.7,5,7.1,9.6,11,14.8C465.9,169.7,459.2,169.7,451.5,169.7z"/>
		<path class="st0" d="M114.7,117.9c-7.8,0-14.4,0-22.1,0c3.7-5.1,7-9.6,10.8-14.8C107.2,108.1,110.7,112.6,114.7,117.9z"/>
		<path class="st0" d="M741.7,103c3.8,5.1,7.2,9.6,11,14.7c-7.5,0-14.2,0-21.9,0C734.5,112.8,737.8,108.3,741.7,103z"/>
		<path class="st0" d="M633.2,149.7c-7.8,0-14.5,0-22.3,0c3.8-5.1,7.3-9.7,11.1-14.9C625.8,139.8,629.2,144.3,633.2,149.7z"/>
		<path class="st0" d="M234.5,149.7c-7.8,0-14.6,0-22.3,0c3.8-5.1,7.2-9.6,11-14.9C226.9,139.7,230.4,144.3,234.5,149.7z"/>
		<path class="st0" d="M491.7,166.6c3.7-4.9,7-9.3,10.7-14.3c3.6,4.8,7,9.3,10.9,14.3C505.9,166.6,499.2,166.6,491.7,166.6z"/>
		<path class="st0" d="M332.1,166.6c3.6-4.9,6.9-9.3,10.7-14.4c3.7,4.8,7,9.3,10.9,14.4C346.3,166.6,339.8,166.6,332.1,166.6z"/>
		<path class="st0" d="M433.8,171c-7.6,0-14.3,0-22.1,0c3.8-5.1,7.2-9.7,11-14.8C426.4,161.1,429.8,165.7,433.8,171z"/>
		<path class="st0" d="M792.7,103.7c-7.6,0-14.2,0-21.8,0c3.6-5,6.9-9.5,10.7-14.7C785.3,93.9,788.7,98.4,792.7,103.7z"/>
		<path class="st0" d="M63.6,89.1c3.7,5,7.1,9.4,10.8,14.4c-7.3,0-13.9,0-21.4,0C56.5,98.8,59.8,94.3,63.6,89.1z"/>
		<path class="st0" d="M143.4,115c3.9,5.2,7.3,9.7,11,14.8c-7.6,0-14.3,0-22,0C136.2,124.8,139.6,120.2,143.4,115z"/>
		<path class="st0" d="M393.7,169.2c-7.6,0-14.3,0-21.8,0c3.7-5,7.1-9.6,10.8-14.6C386.5,159.5,389.8,163.9,393.7,169.2z"/>
		<path class="st0" d="M691,129.7c3.9-5.2,7.2-9.6,10.9-14.5c3.6,4.8,7,9.4,10.9,14.5C705.3,129.7,698.7,129.7,691,129.7z"/>
		<path class="st0" d="M172.7,140.2c3.7-4.9,7-9.3,10.6-14.2c3.6,4.8,6.9,9.2,10.7,14.2C186.7,140.2,180.2,140.2,172.7,140.2z"/>
		<path class="st0" d="M672.8,140.3c-7.5,0-14.1,0-21.8,0c3.7-4.9,7.1-9.3,10.9-14.4C665.6,130.8,669,135.2,672.8,140.3z"/>
	</g>
</g>
</svg>
