<?xml version="1.0" encoding="utf-8"?>
<!-- Generator: Adobe Illustrator 19.2.1, SVG Export Plug-In . SVG Version: 6.00 Build 0)  -->
<svg version="1.1" id="Layer_1" xmlns="http://www.w3.org/2000/svg" xmlns:xlink="http://www.w3.org/1999/xlink" x="0px" y="0px"
	 viewBox="0 0 841.9 595.3" style="enable-background:new 0 0 841.9 595.3;" xml:space="preserve">
<style type="text/css">
	.st0{fill:#FFFFFF;stroke:#000000;stroke-miterlimit:10;}
</style>
<g>
	<g>
		<path class="st0" d="M260,71.6c5.7,0,11.3,0,17,0c2.4,0.4,4.9,0.7,7.3,1.1c44.4,8,74.4,33.4,89.6,75.8c3.1,8.7,4.1,18,6.1,27.1
			c0,6,0,12,0,18c-0.3,1.1-0.7,2.2-0.8,3.4c-6.2,45.5-30.4,77.1-73.3,93.8c-9.1,3.6-19.2,4.6-28.9,6.9c-5.7,0-11.3,0-17,0
			c-2.4-0.4-4.9-0.7-7.3-1.1c-44.4-8-74.4-33.4-89.6-75.8c-3.1-8.7-4.1-18-6.1-27.1c0-6,0-12,0-18c0.3-1.1,0.7-2.2,0.8-3.4
			c6.2-45.5,30.4-77.1,73.3-93.8C240.2,75,250.3,73.9,260,71.6z M182.7,184.4c-0.3,47.7,38,87,85.1,87.2
			c47.8,0.2,86.2-38.3,86.5-86.8c0.3-47.7-38-87-85.1-87.2C221.4,97.4,183,135.9,182.7,184.4z"/>
		<path class="st0" d="M245.8,167.2c-8.7,0-16.6,0-24.4,0c-3.8-28.2,12.1-50.3,33.7-55.7c25.9-6.4,51.9,7.1,59.2,30.5
			c4.9,15.8,0.2,30.9-12.8,41c-3.5,2.7-7.4,5.1-11.1,7.6c-5.6,3.8-8.7,8.9-8.4,15.9c0.2,5.8,0,11.6,0,17.6c-8.4,0-16.3,0-25,0
			c0-6.2,0-12.5,0-18.7c0-3.3,0.1-6.7,0-10c-0.2-8.3,3.3-14.8,10.2-19.4c4.1-2.8,8.2-5.6,12.4-8.5c8.9-6.1,12-13.5,9-21.5
			c-2.5-6.8-12.3-11.9-21.2-11.1c-13.8,1.2-20.7,8.3-21.4,22.1C245.7,160.4,245.8,163.7,245.8,167.2z"/>
		<path class="st0" d="M257.2,260c0-8.5,0-16.7,0-25.2c8.3,0,16.3,0,24.7,0c0,8.5,0,16.7,0,25.2C273.6,260,265.5,260,257.2,260z"/>
	</g>
</g>
</svg>
