<?xml version="1.0" encoding="utf-8"?>
<!-- Generator: Adobe Illustrator 19.2.1, SVG Export Plug-In . SVG Version: 6.00 Build 0)  -->
<svg version="1.1" xmlns="http://www.w3.org/2000/svg" xmlns:xlink="http://www.w3.org/1999/xlink" x="0px" y="0px"
	 viewBox="0 0 841.9 595.3" style="enable-background:new 0 0 841.9 595.3;" xml:space="preserve">
<style type="text/css">
	.st0{fill:#211DB2;}
	.st1{fill:#FFFFFF;stroke:#000000;stroke-width:5;stroke-miterlimit:10;}
</style>
<g id="Layer_2">
	<rect class="st0" width="841.9" height="595.3"/>
</g>
<g id="Layer_1">
	<g>
		<g>
			<path class="st1" d="M492.5,156.5c-1-2.6-1.9-4.9-2.5-6.6c5.8-3.7,11.4-7,16.8-10.6c2.3-1.6,4.2-2.9,6.2,0.2
				c0.2,0.3,0.5,0.5,0.8,0.6c4.8,0.9,9.6,1.8,14.2,2.7c3.3,4.8,6.7,9.6,10.6,15.2c-2.5-0.2-4-0.3-6-0.5c2.2,10.1,11.8,17,10.3,27.4
				c-4.3-1.1-8.7-2.3-14-3.7c0.7,11.8-2.3,20.6-13.1,25.2c1.8,5.7,3.9,11.3,5.4,17c3.7,13.9,3.8,28,1.6,42.1
				c-1.3,8.1-5.8,14.7-10.5,21.3c-6.9,9.5-13.1,19.6-20.2,29c-3.2,4.2-7.8,7.4-11.8,11c-3.2,2.8-6.8,5.3-9.9,8.3
				c-6.4,6.2-14,9.2-22.7,10.4c-2.5,0.3-4.9,1.7-7.1,3c-5.2,2.9-10.3,6-15.4,9c-1.4,0.8-2.9,1.6-4.3,2.6c-4.8,3.5-9.5,7-15.2,11.2
				c6.8,6.5,13.1,14.8,21.3,19.8c7.7,4.7,16.5,9,26.7,7.6c6.1-0.9,12.5,3.4,13.9,7.5c-10.2,0-20.7,0-31.3,0c1,2.3,2.3,5,3.9,8.6
				c-3.2-1.8-5.4-3-7.7-4.3c-0.2,0.3-0.5,0.5-0.7,0.8c1.1,1.8,2.3,3.5,3,4.6c-10.8,0-21.6,0-32.2,0c1,2,2.5,4.9,3.9,7.6
				c-3.6-1-7.2-1.3-10-3c-3.6-2.1-6.7-5.1-9.9-7.9c-1.6-1.4-2.9-3-3.4-3.6c-6.5,3.6-12.1,6.7-17.7,9.9c-0.4-0.3-0.8-0.6-1.2-0.9
				c1.9-3.1,3.5-6.4,5.8-9.1c6-7.2,8.9-7.3,2.5-16.3c-0.9-1.2-1.9-2.7-1.9-4c0.1-8.5-5.7-13.8-10.5-19.5c-1.5-1.8-3.8-3.2-6-4
				c-4.2-1.5-8.6-2.5-13-3.5c-7.6-1.8-14.5-4.6-18.7-12c-0.8-1.4-2.8-2.2-4.2-3.4c-1.5-1.2-2.9-2.4-4.6-3.8c2.2-1.8,3.9-3.2,6.1-5
				c-6-2.1-11.2-4-16.7-6c0.8-1.2,0.9-1.5,1.1-1.6c2.4-0.9,4.8-1.9,7.2-2.8c-2-1.5-3.9-3.1-6-4.5c-1.2-0.8-2.6-1.3-4.2-2.2
				c5.9-3.8,11.2-7.3,16.9-11c-2.8-1.3-5.7-2.5-8.9-4c2.1-2.9,4.2-5.7,6.8-9.3c-12.1,1.5-19.2-4.8-25.2-13.2
				c-1.7-2.4-3.8-4.6-5.9-7.1c1.1-0.8,2.9-2.3,5.9-4.5c-1.3-0.5-1.9-0.9-2.5-1c-8-1.6-11.6-7.4-14.4-14.4c-1.2-3.1-3.8-5.7-5.7-8.6
				c-1.1-1.8-2.3-3.6-2.9-5.6c-1.1-3.5-1.7-7.1-2.6-10.6c-1.8-6.4,1.4-16.7,6.9-20.3c1.2-0.8,3.9-0.5,5.3,0.3
				c5.9,3.5,11.6,7.2,17.2,11.2c3.7,2.6,7.4,3.7,11.7,2.2c17.8-6,36.1-5.7,54.4-4.3c13.1,1,26.1,3.3,39.2,4.4
				c14.7,1.3,28.7-2.8,42.4-7.7c6.6-2.4,11.2-7,13.3-13.9c0.7-2.1,1.5-4.1,2.3-6.1C462.1,178.5,471.7,162.4,492.5,156.5z
				 M377.2,375.5c1.7,2.8,3,4.9,4.2,7c1.2,2.3,2.6,4.7,3.2,7.2c1.6,6.7,8.4,12.7,14.9,13.2c2.6-2.9,5-5.5,7.4-8.2
				c3.2-3.6,2.9-6.4-1.5-8.1c-4.8-1.9-7-5-7.9-9.9c-0.3-1.3-2.6-3.3-4-3.2C388.3,373.8,383.3,374.7,377.2,375.5z M406.5,407.5
				c6.2,0,11.9,0,16.2,0c-2.1-2.9-4.6-6.4-6.8-9.5C412.4,401.6,409.8,404.1,406.5,407.5z"/>
		</g>
	</g>
</g>
</svg>
