<?xml version="1.0" encoding="utf-8"?>
<!-- Generator: Adobe Illustrator 19.2.1, SVG Export Plug-In . SVG Version: 6.00 Build 0)  -->
<svg version="1.1" id="Layer_1" xmlns="http://www.w3.org/2000/svg" xmlns:xlink="http://www.w3.org/1999/xlink" x="0px" y="0px"
	 viewBox="0 0 841.9 595.3" style="enable-background:new 0 0 841.9 595.3;" xml:space="preserve">
<style type="text/css">
	.st0{fill:#5CFFFF;}
	.st1{fill:#63CC25;}
	.st2{fill:#E5E55C;}
</style>
<g>
	<g>
		<path class="st0" d="M56.2,307.6c0-93.4,0-186.8,0-280.2c245,0,490,0,735,0c0,181.9,0,363.8,0,545.7c-2.5,0-4.9,0-7.4,0
			c1.2-8.5,3.5-16.9,3.6-25.4c0.5-64.3,0.3-128.6,0.9-192.8c0.1-10.4-3.3-13.3-13.4-13.1c-44.2,0.8-88.4,1.3-132.6,1.1
			c-9.5,0-19.3-2.3-28.4-5.3c-32.5-11-64-26.2-97.3-33.5c-74.8-16.6-148.9-8.6-221.4,15.5c-5.9,1.9-13.2,3.5-18.7,1.7
			c-40.2-12.8-81.6-17.6-123.5-17.4C120.8,303.9,88.5,306.2,56.2,307.6z"/>
		<path class="st1" d="M56.2,307.6c32.3-1.3,64.5-3.6,96.8-3.8c41.9-0.2,83.3,4.6,123.5,17.4c5.5,1.8,12.9,0.2,18.7-1.7
			c72.5-24.1,146.6-32,221.4-15.5c33.3,7.4,64.7,22.5,97.3,33.5c9.1,3.1,18.9,5.3,28.4,5.3c44.2,0.2,88.4-0.3,132.6-1.1
			c10-0.2,13.5,2.7,13.4,13.1c-0.6,64.3-0.4,128.6-0.9,192.8c-0.1,8.5-2.3,16.9-3.6,25.4c-242.6,0-485.1,0-727.7,0
			C56.2,484.6,56.2,396.1,56.2,307.6z"/>
	</g>
</g>
<circle class="st2" cx="119.4" cy="100" r="42.9"/>
</svg>
