<?xml version="1.0" encoding="utf-8"?>
<!-- Generator: Adobe Illustrator 19.2.1, SVG Export Plug-In . SVG Version: 6.00 Build 0)  -->
<svg version="1.1" xmlns="http://www.w3.org/2000/svg" xmlns:xlink="http://www.w3.org/1999/xlink" x="0px" y="0px"
	 viewBox="0 0 841.9 595.3" style="enable-background:new 0 0 841.9 595.3;" xml:space="preserve">
<style type="text/css">
	.st0{fill:#211DB2;stroke:#000000;stroke-miterlimit:10;}
	.st1{fill:#FFFFFF;stroke:#000000;stroke-width:5;stroke-miterlimit:10;}
</style>
<g id="Layer_2">
	<rect class="st0" width="841.9" height="595.3"/>
</g>
<g id="Layer_1">
	<g>
		<g>
			<path class="st1" d="M434.4,351.1c-3.7,2.2-6.6,4-10.1,6c3.2,2.4,6.1,4.6,9.4,7.1c-5.6,1.9-9.7,7.2-16.7,4.9
				c-5.6-1.8-12.2-1.3-15.3-8.3c-0.8,2-1.3,3.4-1.4,3.7c-4.2-10.9-8.5-22.4-13-33.8c-0.4-1.1-1.9-1.8-3-2.5c-0.5-0.3-1.3-0.3-2-0.3
				c-10.6,0.3-20.5-2.5-30.6-5.6c-7.5-2.3-15.8-2.1-23.7-2.7c-7.4-0.5-13.9-3.3-19.6-7.8c-6.1-4.9-12.3-9.2-20.7-10.2
				c-4.3-0.5-8.5-3.6-12.4-6.1c-2.9-1.9-2.1-5.1,0.3-6.8c6-4.4,12-9,18.6-12.4c11.3-5.8,23.4-10.3,34.7-16.2
				c8.1-4.2,15.4-9.8,23.1-14.8c9.4-6.2,18.6-13,28.3-18.7c15.6-9.1,31.8-9.2,49.1-1.5c-1.6-6.1-2.5-12.1-4.7-17.5
				c-5.2-12.8-7.6-26-4.4-39.5c1.2-5.3,3.8-10.8,7.3-15.1c12-14.9,33.1-11.1,39.9,6.7c3.2,8.3,10,13,17.2,17.2
				c3.7,2.2,7.7,4,11.4,6.2c1.4,0.8,2.3,2.4,3.4,3.6c-0.2,0.6-0.4,1.1-0.7,1.7c-5.7-0.5-11.4-0.6-17-1.6c-4.9-0.9-9.5-3-14.3-4.1
				c-2.5-0.6-5.5-0.6-7.9,0.1c-3.1,0.9-8.3,2.6-8.5,4.4c-0.6,5.5-1.3,11.6,3.3,16.5c9.7,10.6,18.9,21.8,21.1,36.6
				c0.9,6.4,1.6,13.6-0.2,19.6c-4.3,13.6-10.5,26.5-19.4,38c-8.4,11-19.9,17-32.2,21.8c-6,2.3-12.2,4.4-18.4,6.3
				c-2.9,0.9-3.7,2.3-3.2,5c0.7,4.1,0.8,8.3,2.1,12.2c0.6,1.7,3.5,3.3,5.6,3.7c2.7,0.5,5.8,0.4,8.4-0.4
				C424.2,344.8,428.9,348.2,434.4,351.1z"/>
		</g>
	</g>
</g>
</svg>
